<svg xmlns="http://www.w3.org/2000/svg" viewBox="0 0 820 360" font-family="'Courier New', monospace">
  <defs>
    <linearGradient id="hdr" x1="0" y1="0" x2="1" y2="0">
      <stop offset="0%" stop-color="#1a0a2e"/>
      <stop offset="100%" stop-color="#0d0d1a"/>
    </linearGradient>
  </defs>
  <!-- Terminal window -->
  <rect width="820" height="360" rx="10" fill="#0a0010"/>
  <rect width="820" height="36" rx="10" fill="url(#hdr)"/>
  <rect y="20" width="820" height="16" fill="url(#hdr)"/>
  <!-- Traffic lights -->
  <circle cx="20" cy="18" r="6" fill="#ff5f57"/>
  <circle cx="40" cy="18" r="6" fill="#febc2e"/>
  <circle cx="60" cy="18" r="6" fill="#28c840"/>
  <!-- Title -->
  <text x="410" y="23" text-anchor="middle" fill="#6b7280" font-size="11" letter-spacing="1">proc-trace-tls — bash</text>

  <!-- Prompt line -->
  <text x="20" y="62" fill="#6b7280" font-size="13">$</text>
  <text x="34" y="62" fill="#fbbf24" font-size="13">sudo</text>
  <text x="82" y="62" fill="#67e8f9" font-size="13">proc-trace-tls</text>
  <text x="226" y="62" fill="#c4b5fd" font-size="13">-p</text>
  <text x="244" y="62" fill="#fbbf24" font-size="13">$(pgrep curl)</text>

  <!-- Startup -->
  <text x="20" y="88" fill="#67e8f9" font-size="12">proc-trace-tls v0.3.0</text>
  <text x="20" y="106" fill="#6b7280" font-size="12">  lib : /lib/x86_64-linux-gnu/libssl.so.3</text>
  <text x="20" y="122" fill="#6b7280" font-size="12">  pids: 14821</text>
  <text x="20" y="138" fill="#6b7280" font-size="12">Watching 5 probe(s). Press Ctrl-C to stop.</text>

  <!-- Column headers (subtle) -->
  <text x="20"  y="162" fill="#3d2f5a" font-size="10">TIME          PID    COMM      DIR  SYMBOL        HOST</text>

  <!-- RX event 1 -->
  <text x="20"  y="180" fill="#4b5563" font-size="12">14:23:01.441</text>
  <text x="130" y="180" fill="#fbbf24" font-size="12">14821</text>
  <text x="180" y="180" fill="#67e8f9" font-size="12">curl</text>
  <rect x="222" y="168" width="28" height="16" rx="3" fill="#164e63" opacity="0.8"/>
  <text x="226" y="180" fill="#22d3ee" font-size="12" font-weight="bold">RX</text>
  <text x="264" y="180" fill="#7c6f8f" font-size="12">SSL_read    </text>
  <text x="388" y="180" fill="#a855f7" font-size="12">api.github.com:443</text>

  <!-- TX event 1 -->
  <text x="20"  y="200" fill="#4b5563" font-size="12">14:23:01.442</text>
  <text x="130" y="200" fill="#fbbf24" font-size="12">14821</text>
  <text x="180" y="200" fill="#67e8f9" font-size="12">curl</text>
  <rect x="222" y="188" width="28" height="16" rx="3" fill="#451a03" opacity="0.8"/>
  <text x="226" y="200" fill="#fb923c" font-size="12" font-weight="bold">TX</text>
  <text x="264" y="200" fill="#7c6f8f" font-size="12">SSL_write   </text>
  <text x="388" y="200" fill="#a855f7" font-size="12">api.github.com:443</text>

  <!-- RX event 2 -->
  <text x="20"  y="220" fill="#4b5563" font-size="12">14:23:01.449</text>
  <text x="130" y="220" fill="#fbbf24" font-size="12">14821</text>
  <text x="180" y="220" fill="#67e8f9" font-size="12">curl</text>
  <rect x="222" y="208" width="28" height="16" rx="3" fill="#164e63" opacity="0.8"/>
  <text x="226" y="220" fill="#22d3ee" font-size="12" font-weight="bold">RX</text>
  <text x="264" y="220" fill="#7c6f8f" font-size="12">SSL_read    </text>
  <text x="388" y="220" fill="#a855f7" font-size="12">api.github.com:443</text>

  <!-- TX event 2 (python) -->
  <text x="20"  y="240" fill="#4b5563" font-size="12">14:23:01.458</text>
  <text x="130" y="240" fill="#fbbf24" font-size="12">14905</text>
  <text x="180" y="240" fill="#c4b5fd" font-size="12">python3</text>
  <rect x="238" y="228" width="28" height="16" rx="3" fill="#451a03" opacity="0.8"/>
  <text x="242" y="240" fill="#fb923c" font-size="12" font-weight="bold">TX</text>
  <text x="280" y="240" fill="#7c6f8f" font-size="12">SSL_write   </text>
  <text x="388" y="240" fill="#a855f7" font-size="12">pypi.org:443</text>

  <!-- RX event 3 (python) -->
  <text x="20"  y="260" fill="#4b5563" font-size="12">14:23:01.462</text>
  <text x="130" y="260" fill="#fbbf24" font-size="12">14905</text>
  <text x="180" y="260" fill="#c4b5fd" font-size="12">python3</text>
  <rect x="238" y="248" width="28" height="16" rx="3" fill="#164e63" opacity="0.8"/>
  <text x="242" y="260" fill="#22d3ee" font-size="12" font-weight="bold">RX</text>
  <text x="280" y="260" fill="#7c6f8f" font-size="12">SSL_read_ex </text>
  <text x="388" y="260" fill="#a855f7" font-size="12">pypi.org:443</text>

  <!-- TX event 3 (node) -->
  <text x="20"  y="280" fill="#4b5563" font-size="12">14:23:01.471</text>
  <text x="130" y="280" fill="#fbbf24" font-size="12">22011</text>
  <text x="180" y="280" fill="#86efac" font-size="12">node</text>
  <rect x="222" y="268" width="28" height="16" rx="3" fill="#451a03" opacity="0.8"/>
  <text x="226" y="280" fill="#fb923c" font-size="12" font-weight="bold">TX</text>
  <text x="264" y="280" fill="#7c6f8f" font-size="12">SSL_write   </text>
  <text x="388" y="280" fill="#a855f7" font-size="12">registry.npmjs.org:443</text>

  <!-- Ctrl-C + summary -->
  <text x="20" y="308" fill="#4b5563" font-size="12">^C</text>
  <text x="20" y="326" fill="#4b5563" font-size="12">captured 5 TLS events</text>
</svg>
