<svg xmlns="http://www.w3.org/2000/svg" viewBox="0 0 720 340" font-family="'Courier New', monospace">
  <defs>
    <linearGradient id="hdr" x1="0" y1="0" x2="1" y2="0">
      <stop offset="0%" stop-color="#1a0a2e"/>
      <stop offset="100%" stop-color="#0d0d1a"/>
    </linearGradient>
  </defs>
  <!-- Terminal window -->
  <rect width="720" height="340" rx="10" fill="#0a0010"/>
  <rect width="720" height="36" rx="10" fill="url(#hdr)"/>
  <rect y="20" width="720" height="16" fill="url(#hdr)"/>
  <!-- Traffic lights -->
  <circle cx="20" cy="18" r="6" fill="#ff5f57"/>
  <circle cx="40" cy="18" r="6" fill="#febc2e"/>
  <circle cx="60" cy="18" r="6" fill="#28c840"/>
  <!-- Title -->
  <text x="360" y="23" text-anchor="middle" fill="#6b7280" font-size="11" letter-spacing="1">proc-trace-tls — bash</text>

  <!-- Prompt line -->
  <text x="20" y="62" fill="#6b7280" font-size="13">$</text>
  <text x="34" y="62" fill="#fbbf24" font-size="13">sudo</text>
  <text x="82" y="62" fill="#67e8f9" font-size="13">proc-trace-tls</text>
  <text x="226" y="62" fill="#c4b5fd" font-size="13">-p</text>
  <text x="244" y="62" fill="#fbbf24" font-size="13">$(pgrep curl)</text>

  <!-- Startup -->
  <text x="20" y="88" fill="#67e8f9" font-size="12">proc-trace-tls v0.1.0</text>
  <text x="20" y="106" fill="#6b7280" font-size="12">  lib : /lib/x86_64-linux-gnu/libssl.so.3</text>
  <text x="20" y="122" fill="#6b7280" font-size="12">  pids: 14821</text>
  <text x="20" y="138" fill="#6b7280" font-size="12">Watching 4 probe(s). Press Ctrl-C to stop.</text>

  <!-- Events -->
  <!-- RX event 1 -->
  <text x="20" y="166" fill="#6b7280" font-size="12">14:23:01.441</text>
  <text x="122" y="166" fill="#fbbf24" font-size="12">14821</text>
  <text x="168" y="166" fill="#67e8f9" font-size="12">curl</text>
  <rect x="204" y="154" width="28" height="16" rx="3" fill="#164e63" opacity="0.7"/>
  <text x="208" y="166" fill="#22d3ee" font-size="12" font-weight="bold">RX</text>
  <text x="242" y="166" fill="#6b7280" font-size="12">SSL_read</text>

  <!-- TX event 1 -->
  <text x="20" y="188" fill="#6b7280" font-size="12">14:23:01.442</text>
  <text x="122" y="188" fill="#fbbf24" font-size="12">14821</text>
  <text x="168" y="188" fill="#67e8f9" font-size="12">curl</text>
  <rect x="204" y="176" width="28" height="16" rx="3" fill="#451a03" opacity="0.7"/>
  <text x="208" y="188" fill="#fb923c" font-size="12" font-weight="bold">TX</text>
  <text x="242" y="188" fill="#6b7280" font-size="12">SSL_write</text>

  <!-- RX event 2 -->
  <text x="20" y="210" fill="#6b7280" font-size="12">14:23:01.449</text>
  <text x="122" y="210" fill="#fbbf24" font-size="12">14821</text>
  <text x="168" y="210" fill="#67e8f9" font-size="12">curl</text>
  <rect x="204" y="198" width="28" height="16" rx="3" fill="#164e63" opacity="0.7"/>
  <text x="208" y="210" fill="#22d3ee" font-size="12" font-weight="bold">RX</text>
  <text x="242" y="210" fill="#6b7280" font-size="12">SSL_read</text>

  <!-- RX event 3 -->
  <text x="20" y="232" fill="#6b7280" font-size="12">14:23:01.451</text>
  <text x="122" y="232" fill="#fbbf24" font-size="12">14821</text>
  <text x="168" y="232" fill="#67e8f9" font-size="12">curl</text>
  <rect x="204" y="220" width="28" height="16" rx="3" fill="#164e63" opacity="0.7"/>
  <text x="208" y="232" fill="#22d3ee" font-size="12" font-weight="bold">RX</text>
  <text x="242" y="232" fill="#6b7280" font-size="12">SSL_read_ex</text>

  <!-- TX event 2 (different PID - python) -->
  <text x="20" y="254" fill="#6b7280" font-size="12">14:23:01.458</text>
  <text x="122" y="254" fill="#fbbf24" font-size="12">14822</text>
  <text x="168" y="254" fill="#c4b5fd" font-size="12">python3</text>
  <rect x="220" y="242" width="28" height="16" rx="3" fill="#451a03" opacity="0.7"/>
  <text x="224" y="254" fill="#fb923c" font-size="12" font-weight="bold">TX</text>
  <text x="258" y="254" fill="#6b7280" font-size="12">SSL_write</text>

  <!-- Ctrl-C -->
  <text x="20" y="280" fill="#6b7280" font-size="12">^C</text>
  <text x="20" y="298" fill="#6b7280" font-size="12">captured 5 TLS events</text>
</svg>
